<svg xmlns="http://www.w3.org/2000/svg" viewBox="0 0 128 96" role="img" aria-labelledby="title"><title>Power Above All — building</title>
<path fill="#A9BA88" d="M13 77 95 70 119 82 80 90 17 86Z"/>
<path fill="#F3E7CA" stroke="#243B37" stroke-width="2" d="M29 42 87 43 87 79 28 80Z"/>
<path fill="#B79D71" stroke="#243B37" stroke-width="2" d="M87 43 108 33 109 70 87 79Z"/>
<path fill="#83B0B6" stroke="#243B37" stroke-width="2.5" d="M22 44 42 22 98 23 88 44Z"/>
<path fill="#243B37" d="M88 44 98 23 114 34 107 37 96 34Z"/>
<path fill="#F3E7CA" stroke="#243B37" stroke-width="2" d="M21 37 20 14 33 14 34 39Z"/>
<path fill="#58464D" d="M17 15 27 3 38 16Z"/>
<path fill="#243B37" d="M50 81 50 63Q56 55 62 63L62 81ZM37 48H43V57H37ZM71 49H77V58H71ZM24 21H29V29H24Z"/>
<path fill="none" stroke="#243B37" stroke-width="1.4" d="M94 48V56M102 44V52M94 64V71M36 72H42"/>
<path fill="#F3E7CA" opacity=".55" d="M35 37 46 26 85 27 80 30 48 29 42 36Z"/>
</svg>
